<?xml version="1.0" encoding="utf-8"?>
<!-- Generator: Adobe Illustrator 22.0.0, SVG Export Plug-In . SVG Version: 6.00 Build 0)  -->
<svg version="1.1" id="Ebene_1" xmlns="http://www.w3.org/2000/svg" xmlns:xlink="http://www.w3.org/1999/xlink" x="0px" y="0px"
	 viewBox="0 0 11 11" style="enable-background:new 0 0 11 11;" xml:space="preserve">
<style type="text/css">
	.st0{fill:#FF0000;}
</style>
<path class="st0" d="M4.8,6.3c-0.9,0-1.8,0-2.6,0c-0.5,0-0.5,0-0.4-0.5c0.3-1.8,0.7-3.6,1-5.5C2.8,0,2.9,0,3.2,0c1,0,1.9,0,2.9,0
	c0.4,0,0.4,0,0.3,0.4C6.2,1.2,6,2.1,5.7,2.9c0,0.1,0,0.1-0.1,0.2c0.5,0,0.9,0,1.4,0c0.6,0,1.3,0,1.9,0c0.1,0,0.2,0,0.3,0
	c0.1,0,0.2,0.1,0.1,0.2C9.3,3.6,9.2,3.7,9.1,3.8C7.6,6.1,6,8.4,4.4,10.6c-0.1,0.1-0.2,0.2-0.3,0.3C4,11,3.9,11,3.8,11
	c-0.1-0.1-0.1-0.2-0.1-0.3C4,9.9,4.1,9.1,4.3,8.3C4.5,7.6,4.6,7,4.8,6.3z"/>
</svg>
