<?xml version="1.0" encoding="utf-8"?>
<!-- Generator: Adobe Illustrator 22.0.0, SVG Export Plug-In . SVG Version: 6.00 Build 0)  -->
<svg version="1.1" xmlns="http://www.w3.org/2000/svg" xmlns:xlink="http://www.w3.org/1999/xlink" x="0px" y="0px"
	 viewBox="0 0 1000 700" style="enable-background:new 0 0 1000 700;" xml:space="preserve">
<style type="text/css">
	.st0{display:none;}
	.st1{display:inline;}
	.st2{fill:#CCCCCC;}
	.st3{fill:none;stroke:#000000;stroke-width:2;stroke-miterlimit:10;}
	.st4{display:inline;fill:none;stroke:#000000;stroke-width:2;stroke-miterlimit:10;}
	.st5{fill:#999999;stroke:#000000;stroke-width:3;stroke-miterlimit:10;}
	.st6{display:inline;fill:none;stroke:#666666;stroke-width:9;stroke-miterlimit:10;}
	.st7{display:inline;fill:none;stroke:#999999;stroke-width:7;stroke-miterlimit:10;}
	.st8{display:inline;fill:none;stroke:#999999;stroke-width:9;stroke-miterlimit:10;}
</style>
<g id="Ebene_1" class="st0">
	<g id="XMLID_1_" class="st1">
		<g>
			<path class="st2" d="M923.5,130.2v373h-788v-40h40v-293h-120v-40H923.5z M883.5,437.5V192.5c0-12.3-10-22.3-22.3-22.3H215.5v293
				h642.3C872.1,463.2,883.5,451.7,883.5,437.5z"/>
		</g>
		<g>
			<polygon class="st3" points="55.5,130.2 55.5,170.2 175.5,170.2 175.5,463.2 135.5,463.2 135.5,503.2 923.5,503.2 923.5,130.2 
							"/>
			<path class="st3" d="M861.2,170.2H215.5v293h642.3c14.2,0,25.7-11.5,25.7-25.6V192.5C883.5,180.2,873.6,170.2,861.2,170.2z"/>
		</g>
	</g>
	<path d="M946.3,398.9v127.3H819V499c0.6,0,1.3,0.1,1.9,0.1H890c16.1,0,29.1-13,29.1-29.1v-69.2c0-0.6,0-1.3-0.1-1.9H946.3z"/>
	<path d="M888,398.6v39.8c0,16.1-13,29.1-29.1,29.1h-40v-27.2h41.9v-41.7H888z"/>
	<path d="M818.9,107.5h127.3v127.3H919c0-0.6,0.1-1.3,0.1-1.9v-69.1c0-16.1-13-29.1-29.1-29.1h-69.2c-0.6,0-1.3,0-1.9,0.1V107.5z"/>
	<path d="M818.6,165.8h39.8c16.1,0,29.1,13,29.1,29.1v40h-27.2V193h-41.7V165.8z"/>
</g>
<g id="Ebene_3" class="st0">
	<rect x="215.5" y="170.2" class="st4" width="668" height="293"/>
	<line class="st4" x1="175.5" y1="170.2" x2="175.5" y2="463.2"/>
	<line class="st4" x1="55.5" y1="170.2" x2="175.5" y2="170.2"/>
	<line class="st4" x1="175.5" y1="463.2" x2="135.5" y2="463.2"/>
	<line class="st4" x1="135.5" y1="503.2" x2="135.5" y2="463.2"/>
	<line class="st4" x1="923.5" y1="503.2" x2="135.5" y2="503.2"/>
	<line class="st4" x1="923.5" y1="130.2" x2="923.5" y2="503.2"/>
	<line class="st4" x1="55.5" y1="130.2" x2="923.5" y2="130.2"/>
	<line class="st4" x1="55.5" y1="170.2" x2="55.5" y2="130.2"/>
</g>
<g id="Ebene_4">
	<rect x="55.5" y="130.2" class="st5" width="824" height="40"/>
	<rect x="883.5" y="130.2" class="st5" width="40" height="329"/>
	<rect x="135.5" y="463.2" class="st5" width="788" height="40"/>
	<rect x="175.5" y="174.2" class="st5" width="39.8" height="284.8"/>
</g>
<g id="Ebene_2" class="st0">
	<line class="st6" x1="206.5" y1="175.3" x2="206.5" y2="458.7"/>
	<line class="st6" x1="184" y1="175.3" x2="184" y2="458.7"/>
	<line class="st6" x1="136.7" y1="472.7" x2="922" y2="472.7"/>
	<line class="st6" x1="136.7" y1="493.7" x2="922" y2="493.7"/>
	<line class="st7" x1="852.5" y1="483.1" x2="919.8" y2="483.1"/>
	<line class="st6" x1="893" y1="458.5" x2="893" y2="131.5"/>
	<line class="st6" x1="914" y1="458.5" x2="914" y2="131.5"/>
	<line class="st7" x1="903.5" y1="200.6" x2="903.5" y2="133.3"/>
	<line class="st6" x1="55.8" y1="139.7" x2="878.8" y2="139.7"/>
	<line class="st6" x1="55.8" y1="160.7" x2="878.8" y2="160.7"/>
	<line class="st8" x1="184" y1="479.6" x2="184" y2="486.7"/>
	<line class="st8" x1="206.5" y1="479.6" x2="206.5" y2="486.7"/>
	<line class="st8" x1="184" y1="146.6" x2="184" y2="153.7"/>
	<line class="st8" x1="206.5" y1="146.6" x2="206.5" y2="153.7"/>
</g>
</svg>
